<svg xmlns="http://www.w3.org/2000/svg" viewBox="0 0 512 512" aria-labelledby="title" role="img">
  <title>DoDave Tech Solutions Logo</title>
  <defs>
    <linearGradient id="g" x1="0" y1="0" x2="1" y2="1">
      <stop offset="0" stop-color="#4cc9f0"/>
      <stop offset="1" stop-color="#7b2cbf"/>
    </linearGradient>
    <linearGradient id="stroke" x1="0" y1="0" x2="1" y2="1">
      <stop offset="0" stop-color="#48bfe3"/>
      <stop offset="1" stop-color="#6930c3"/>
    </linearGradient>
  </defs>
  <rect width="512" height="512" rx="40" fill="#0b0b10"/>
  <g transform="translate(256 256)">
    <polygon points="0,-170 147,-85 147,85 0,170 -147,85 -147,-85" fill="none" stroke="url(#stroke)" stroke-width="16"/>
    <polygon points="0,-120 104,-60 104,60 0,120 -104,60 -104,-60" fill="none" stroke="url(#stroke)" stroke-width="8"/>
    <g fill="none" stroke="url(#stroke)" stroke-width="10" stroke-linecap="round">
      <path d="M -147,-85 l -40,-24"/>
      <circle cx="-192" cy="-112" r="8" fill="url(#g)"/>
      <path d="M -147,85 l -40,24"/>
      <circle cx="-192" cy="112" r="8" fill="url(#g)"/>
      <path d="M 147,-85 l 40,-24"/>
      <circle cx="192" cy="-112" r="8" fill="url(#g)"/>
      <path d="M 147,85 l 40,24"/>
      <circle cx="192" cy="112" r="8" fill="url(#g)"/>
    </g>
    <g fill="url(#g)">
      <path d="M -40 -70 L 0 -40 L 0 40 L -40 70 Z"/>
      <path d="M 40 -70 L 0 -40 L 0 40 L 40 70 Z"/>
    </g>
  </g>
  <text x="256" y="460" text-anchor="middle" font-family="Montserrat, Arial, sans-serif" font-size="44" font-weight="700" fill="url(#g)">DODAVE</text>
  <text x="256" y="494" text-anchor="middle" font-family="Roboto, Arial, sans-serif" font-size="20" fill="#cbd5e1">TECH SOLUTIONS</text>
</svg>
